<svg width="64" height="64" viewBox="0 0 64 64" fill="none" xmlns="http://www.w3.org/2000/svg">
<rect x="12" y="2" width="40" height="40" rx="12" fill="#4F46E5"/>
<g filter="url(#filter0_dd_1_7)">
<rect x="12" y="2" width="40" height="40" rx="12" fill="white" fill-opacity="0.01" shape-rendering="crispEdges"/>
</g>
<path d="M32.83 12.1801C32.3028 11.9396 31.6972 11.9396 31.17 12.1801L22.6 16.0801C22.2374 16.24 22.0034 16.5989 22.0034 16.9951C22.0034 17.3914 22.2374 17.7502 22.6 17.9101L31.18 21.8201C31.7072 22.0606 32.3128 22.0606 32.84 21.8201L41.42 17.9201C41.7825 17.7602 42.0165 17.4014 42.0165 17.0051C42.0165 16.6089 41.7825 16.25 41.42 16.0901L32.83 12.1801" stroke="white" stroke-width="2" stroke-linecap="round" stroke-linejoin="round"/>
<path d="M22 22C21.999 22.3906 22.2255 22.746 22.58 22.91L31.18 26.82C31.7044 27.0574 32.3056 27.0574 32.83 26.82L41.41 22.92C41.7717 22.7574 42.0031 22.3965 42 22" stroke="white" stroke-width="2" stroke-linecap="round" stroke-linejoin="round"/>
<path d="M22 27C21.999 27.3906 22.2255 27.746 22.58 27.91L31.18 31.82C31.7044 32.0574 32.3056 32.0574 32.83 31.82L41.41 27.92C41.7717 27.7574 42.0031 27.3965 42 27" stroke="white" stroke-width="2" stroke-linecap="round" stroke-linejoin="round"/>
<defs>
<filter id="filter0_dd_1_7" x="0" y="0" width="64" height="64" filterUnits="userSpaceOnUse" color-interpolation-filters="sRGB">
<feFlood flood-opacity="0" result="BackgroundImageFix"/>
<feColorMatrix in="SourceAlpha" type="matrix" values="0 0 0 0 0 0 0 0 0 0 0 0 0 0 0 0 0 0 127 0" result="hardAlpha"/>
<feMorphology radius="4" operator="erode" in="SourceAlpha" result="effect1_dropShadow_1_7"/>
<feOffset dy="4"/>
<feGaussianBlur stdDeviation="3"/>
<feComposite in2="hardAlpha" operator="out"/>
<feColorMatrix type="matrix" values="0 0 0 0 0.309837 0 0 0 0 0.274476 0 0 0 0 0.897986 0 0 0 0.2 0"/>
<feBlend mode="normal" in2="BackgroundImageFix" result="effect1_dropShadow_1_7"/>
<feColorMatrix in="SourceAlpha" type="matrix" values="0 0 0 0 0 0 0 0 0 0 0 0 0 0 0 0 0 0 127 0" result="hardAlpha"/>
<feMorphology radius="3" operator="erode" in="SourceAlpha" result="effect2_dropShadow_1_7"/>
<feOffset dy="10"/>
<feGaussianBlur stdDeviation="7.5"/>
<feComposite in2="hardAlpha" operator="out"/>
<feColorMatrix type="matrix" values="0 0 0 0 0.309837 0 0 0 0 0.274476 0 0 0 0 0.897986 0 0 0 0.2 0"/>
<feBlend mode="normal" in2="effect1_dropShadow_1_7" result="effect2_dropShadow_1_7"/>
<feBlend mode="normal" in="SourceGraphic" in2="effect2_dropShadow_1_7" result="shape"/>
</filter>
</defs>
</svg>
