<svg width="248" height="93" viewBox="0 0 248 93" fill="none" xmlns="http://www.w3.org/2000/svg">
<mask id="path-1-inside-1_1_289" fill="white">
<path d="M0 0H248V92.5H0V0Z"/>
</mask>
<path d="M248 92.5V91.5H0V92.5V93.5H248V92.5Z" fill="#E2E8F0" mask="url(#path-1-inside-1_1_289)"/>
<rect x="24" y="27.75" width="36" height="36" rx="12" fill="#4F46E5"/>
<g filter="url(#filter0_dd_1_289)">
<rect x="24" y="27.75" width="36" height="36" rx="12" fill="white" fill-opacity="0.01" shape-rendering="crispEdges"/>
</g>
<path d="M42.6916 37.5667C42.2522 37.3663 41.7476 37.3663 41.3082 37.5667L34.1666 40.8167C33.8644 40.9499 33.6694 41.249 33.6694 41.5792C33.6694 41.9094 33.8644 42.2085 34.1666 42.3417L41.3166 45.6C41.7559 45.8004 42.2606 45.8004 42.6999 45.6L49.8499 42.35C50.152 42.2168 50.347 41.9177 50.347 41.5875C50.347 41.2573 50.152 40.9582 49.8499 40.825L42.6916 37.5667" stroke="white" stroke-width="1.66667" stroke-linecap="round" stroke-linejoin="round"/>
<path d="M33.6668 45.75C33.6659 46.0755 33.8547 46.3716 34.1501 46.5083L41.3168 49.7667C41.7537 49.9645 42.2548 49.9645 42.6918 49.7667L49.8418 46.5167C50.1431 46.3812 50.336 46.0804 50.3334 45.75" stroke="white" stroke-width="1.66667" stroke-linecap="round" stroke-linejoin="round"/>
<path d="M33.6668 49.9167C33.6659 50.2422 33.8547 50.5383 34.1501 50.675L41.3168 53.9334C41.7537 54.1312 42.2548 54.1312 42.6918 53.9334L49.8418 50.6834C50.1431 50.5479 50.336 50.2471 50.3334 49.9167" stroke="white" stroke-width="1.66667" stroke-linecap="round" stroke-linejoin="round"/>
<path d="M73.1833 45V31.9043H76.1773L80.3121 38.5336C80.5224 38.8738 80.7366 39.2423 80.9548 39.6391C81.173 40.0359 81.3947 40.4774 81.6198 40.9637C81.8449 41.45 82.0704 41.998 82.2962 42.6077H82.0209C81.9808 42.1196 81.9435 41.6013 81.909 41.0527C81.8745 40.5042 81.8464 39.9772 81.8247 39.4718C81.803 38.9665 81.7922 38.5394 81.7922 38.1908V31.9043H84.5348V45H81.5328L77.7787 38.9898C77.5018 38.5365 77.2455 38.0983 77.01 37.6751C76.7744 37.2519 76.5295 36.7827 76.2751 36.2675C76.0208 35.7523 75.7172 35.1382 75.3645 34.4253H75.7053C75.7441 35.0567 75.7808 35.6636 75.8153 36.246C75.8498 36.8284 75.8775 37.3548 75.8985 37.8251C75.9195 38.2953 75.93 38.6809 75.93 38.9817V45H73.1833ZM90.8367 45.192C89.8337 45.192 88.969 44.9866 88.2425 44.5758C87.5161 44.165 86.9581 43.5816 86.5686 42.8258C86.1792 42.0699 85.9844 41.1738 85.9844 40.1375C85.9844 39.1266 86.1779 38.2397 86.565 37.4768C86.952 36.714 87.4994 36.1189 88.2071 35.6917C88.9149 35.2644 89.7473 35.0508 90.7044 35.0508C91.3461 35.0508 91.9457 35.153 92.5032 35.3575C93.0606 35.562 93.5498 35.8704 93.9708 36.2827C94.3918 36.6949 94.7206 37.213 94.9572 37.8368C95.1938 38.4605 95.3121 39.1933 95.3121 40.0351V40.7749H87.0662V39.1162H94.0277L92.7958 39.561C92.7958 39.0493 92.7176 38.6047 92.5614 38.2272C92.4051 37.8496 92.1736 37.5567 91.867 37.3485C91.5603 37.1402 91.1791 37.0361 90.7233 37.0361C90.2676 37.0361 89.881 37.1416 89.5636 37.3525C89.2461 37.5634 89.0045 37.8496 88.8388 38.211C88.6731 38.5724 88.5903 38.9833 88.5903 39.4437V40.6115C88.5903 41.1798 88.6854 41.6573 88.8757 42.0439C89.0659 42.4305 89.3335 42.7209 89.6784 42.9152C90.0234 43.1095 90.4235 43.2066 90.8787 43.2066C91.1863 43.2066 91.4659 43.1628 91.7175 43.0752C91.969 42.9876 92.1853 42.858 92.3663 42.6862C92.5474 42.5144 92.6852 42.3026 92.7798 42.0509L95.1634 42.4918C95.0048 43.0346 94.7295 43.5085 94.3378 43.9136C93.946 44.3186 93.4552 44.633 92.8653 44.8566C92.2753 45.0802 91.5992 45.192 90.8367 45.192ZM95.554 45L99.354 38.9309L99.35 40.9792L95.7419 35.1738H98.5891L99.4785 36.7251C99.7601 37.2299 100.014 37.731 100.241 38.2284C100.468 38.7257 100.696 39.2068 100.926 39.6717H99.9246C100.167 39.21 100.399 38.7297 100.622 38.2307C100.844 37.7318 101.102 37.2299 101.396 36.7251L102.321 35.1738H105.114L101.441 41.0068V38.9835L105.253 45H102.424L101.334 43.1499C101.046 42.6473 100.786 42.1475 100.554 41.6506C100.322 41.1537 100.087 40.6768 99.8503 40.22H100.856C100.629 40.6768 100.406 41.1537 100.188 41.6506C99.9704 42.1475 99.7191 42.6473 99.4344 43.1499L98.3504 45H95.554ZM109.68 45.123C109.002 45.123 108.408 44.975 107.899 44.6788C107.39 44.3826 106.996 43.9575 106.716 43.4035C106.436 42.8496 106.296 42.1896 106.296 41.4236V35.1738H108.932V40.9642C108.932 41.5745 109.09 42.0532 109.406 42.4002C109.722 42.7473 110.158 42.9208 110.714 42.9208C111.088 42.9208 111.418 42.8396 111.703 42.6773C111.988 42.5149 112.212 42.2795 112.375 41.971C112.538 41.6625 112.619 41.2932 112.619 40.8631V35.1738H115.259V45H112.766L112.728 42.547H112.882C112.622 43.372 112.228 44.0076 111.7 44.4538C111.172 44.8999 110.498 45.123 109.68 45.123ZM120.957 45.192C120.166 45.192 119.466 45.0788 118.856 44.8524C118.246 44.6261 117.748 44.2982 117.363 43.8687C116.977 43.4393 116.727 42.9212 116.613 42.3144L119.07 41.8923C119.198 42.3491 119.423 42.6916 119.744 42.9199C120.066 43.1481 120.496 43.2622 121.034 43.2622C121.536 43.2622 121.933 43.1663 122.225 42.9746C122.517 42.7829 122.663 42.5403 122.663 42.2467C122.663 41.9892 122.559 41.7784 122.352 41.6146C122.144 41.4507 121.825 41.3241 121.392 41.235L119.7 40.8862C118.753 40.6911 118.045 40.3613 117.576 39.8967C117.108 39.4322 116.874 38.8321 116.874 38.0964C116.874 37.4674 117.045 36.9258 117.389 36.4714C117.732 36.017 118.212 35.6666 118.83 35.4203C119.447 35.1739 120.17 35.0508 120.997 35.0508C121.775 35.0508 122.448 35.1582 123.016 35.373C123.584 35.5878 124.043 35.8906 124.393 36.2815C124.743 36.6724 124.978 37.1357 125.099 37.6713L122.76 38.0832C122.657 37.7475 122.464 37.4732 122.18 37.2605C121.897 37.0477 121.516 36.9413 121.039 36.9413C120.605 36.9413 120.241 37.0326 119.948 37.2151C119.655 37.3976 119.508 37.6386 119.508 37.938C119.508 38.1842 119.603 38.3926 119.792 38.5633C119.981 38.734 120.308 38.8677 120.771 38.9645L122.537 39.3161C123.487 39.508 124.195 39.8228 124.659 40.2605C125.123 40.6981 125.355 41.2681 125.355 41.9704C125.355 42.6142 125.167 43.1777 124.791 43.6607C124.416 44.1438 123.897 44.5197 123.237 44.7886C122.576 45.0575 121.816 45.192 120.957 45.192Z" fill="#0F172A"/>
<path d="M132.466 45.1758C131.306 45.1758 130.267 44.9119 129.35 44.3842C128.433 43.8564 127.71 43.0917 127.18 42.0899C126.651 41.0882 126.386 39.8786 126.386 38.4609C126.386 37.0343 126.653 35.8193 127.187 34.816C127.722 33.8127 128.448 33.0473 129.367 32.5198C130.285 31.9923 131.318 31.7285 132.466 31.7285C133.21 31.7285 133.904 31.8323 134.547 32.0399C135.189 32.2475 135.759 32.5508 136.257 32.9498C136.754 33.3487 137.161 33.8363 137.48 34.4124C137.798 34.9886 138.006 35.6452 138.104 36.3823H135.39C135.328 36.0229 135.214 35.7034 135.049 35.4237C134.883 35.1439 134.675 34.9059 134.424 34.7095C134.174 34.5131 133.887 34.3642 133.566 34.2628C133.245 34.1614 132.897 34.1108 132.523 34.1108C131.842 34.1108 131.245 34.2807 130.731 34.6206C130.217 34.9605 129.818 35.454 129.534 36.1011C129.25 36.7482 129.108 37.5348 129.108 38.4609C129.108 39.4033 129.253 40.1973 129.541 40.8428C129.829 41.4883 130.229 41.9748 130.74 42.3023C131.251 42.6298 131.842 42.7935 132.514 42.7935C132.888 42.7935 133.234 42.7422 133.554 42.6395C133.874 42.5367 134.161 42.3879 134.415 42.1928C134.669 41.9978 134.88 41.7597 135.049 41.4786C135.217 41.1976 135.334 40.8787 135.4 40.5219H138.114C138.04 41.1298 137.86 41.7116 137.572 42.2675C137.283 42.8233 136.898 43.3203 136.415 43.7586C135.932 44.1969 135.36 44.5427 134.698 44.7959C134.036 45.0492 133.292 45.1758 132.466 45.1758ZM139.609 45V31.9043H144.718C145.712 31.9043 146.558 32.0802 147.255 32.432C147.952 32.7838 148.484 33.2794 148.851 33.9188C149.218 34.5583 149.401 35.3072 149.401 36.1656C149.401 37.0303 149.216 37.7742 148.844 38.3972C148.473 39.0201 147.933 39.4977 147.226 39.8299C146.52 40.162 145.663 40.3281 144.656 40.3281H141.196V38.1545H144.23C144.776 38.1545 145.226 38.0796 145.58 37.9296C145.934 37.7797 146.198 37.5574 146.373 37.2629C146.547 36.9684 146.634 36.6026 146.634 36.1656C146.634 35.7232 146.547 35.3505 146.373 35.0474C146.198 34.7443 145.934 34.5135 145.578 34.355C145.223 34.1965 144.771 34.1173 144.222 34.1173H142.295V45H139.609ZM146.895 45L143.712 39.0408H146.618L149.873 45H146.895ZM150.981 45V31.9043H155.1L157.22 37.9162C157.309 38.195 157.41 38.5577 157.524 39.0044C157.638 39.4511 157.754 39.9321 157.872 40.4476C157.99 40.9631 158.101 41.4636 158.203 41.9493C158.306 42.4349 158.391 42.8576 158.458 43.2175H157.932C158.001 42.8657 158.086 42.4484 158.188 41.9654C158.289 41.4825 158.398 40.9826 158.516 40.4658C158.634 39.949 158.75 39.4652 158.864 39.0145C158.978 38.5638 159.079 38.1977 159.168 37.9162L161.258 31.9043H165.386V45H162.694V38.8258C162.694 38.5404 162.698 38.1846 162.708 37.7582C162.717 37.3318 162.728 36.8712 162.742 36.3764C162.755 35.8816 162.768 35.3826 162.78 34.8793C162.792 34.3759 162.799 33.9033 162.802 33.4614H162.976C162.862 33.948 162.738 34.4498 162.601 34.9668C162.465 35.4838 162.329 35.9862 162.192 36.474C162.056 36.9617 161.926 37.4086 161.802 37.8148C161.679 38.2209 161.573 38.5579 161.484 38.8258L159.317 45H157.055L154.853 38.8258C154.765 38.5606 154.66 38.2269 154.537 37.8249C154.415 37.4228 154.284 36.9792 154.144 36.4942C154.004 36.0091 153.865 35.5067 153.726 34.987C153.587 34.4673 153.454 33.9587 153.326 33.4614H153.537C153.542 33.8844 153.551 34.3449 153.563 34.8429C153.574 35.3408 153.587 35.8392 153.599 36.338C153.611 36.8368 153.622 37.3028 153.633 37.7359C153.644 38.1691 153.649 38.5323 153.649 38.8258V45H150.981Z" fill="#4F46E5"/>
<path d="M72.8051 63.5V56.2246H77.3846V57.1838H73.9209V59.3512H77.1392V60.3033H73.9209V62.5408H77.4171V63.5H72.8051ZM79.8266 60.2654V63.5H78.7525V58.041H79.7766L79.7876 59.3774H79.6769C79.8353 58.8893 80.0657 58.5331 80.3681 58.3089C80.6704 58.0847 81.0362 57.9727 81.4654 57.9727C81.8368 57.9727 82.1615 58.0505 82.4397 58.2063C82.7178 58.3621 82.9344 58.5926 83.0893 58.8978C83.2442 59.203 83.3217 59.5809 83.3217 60.0314V63.5H82.2477V60.1653C82.2477 59.7724 82.1453 59.4645 81.9405 59.2418C81.7357 59.0192 81.4549 58.9078 81.098 58.9078C80.8558 58.9078 80.6386 58.9608 80.4463 59.0668C80.2541 59.1729 80.1028 59.3269 79.9923 59.5289C79.8818 59.7308 79.8266 59.9764 79.8266 60.2654ZM87.1047 58.041V58.9143H84.1436V58.041H87.1047ZM84.941 56.7422H86.015V62.0233C86.015 62.244 86.061 62.4056 86.153 62.5079C86.2449 62.6103 86.3974 62.6614 86.6103 62.6614C86.6663 62.6614 86.7397 62.6548 86.8307 62.6415C86.9216 62.6281 86.9997 62.615 87.0648 62.602L87.2552 63.4628C87.14 63.5006 87.0172 63.5281 86.8867 63.5453C86.7562 63.5624 86.6284 63.571 86.5033 63.571C86.0061 63.571 85.6214 63.4437 85.3493 63.1891C85.0771 62.9345 84.941 62.5755 84.941 62.1119V56.7422ZM90.4268 63.6137C89.8895 63.6137 89.426 63.4975 89.0365 63.2652C88.647 63.0329 88.3473 62.7067 88.1374 62.2868C87.9274 61.8669 87.8225 61.3743 87.8225 60.8092C87.8225 60.2487 87.9256 59.7557 88.1318 59.3301C88.338 58.9046 88.6298 58.5719 89.0072 58.3322C89.3846 58.0925 89.8268 57.9727 90.3339 57.9727C90.6459 57.9727 90.9473 58.0236 91.2383 58.1255C91.5292 58.2274 91.7902 58.3876 92.0211 58.6061C92.2521 58.8245 92.4351 59.1076 92.57 59.4554C92.705 59.8031 92.7725 60.2231 92.7725 60.7153V61.0965H88.4199V60.2945H92.2188L91.7173 60.5592C91.7173 60.2257 91.6654 59.9312 91.5616 59.6758C91.4578 59.4203 91.3037 59.2207 91.0993 59.0769C90.895 58.933 90.641 58.8611 90.3374 58.8611C90.0338 58.8611 89.7745 58.9344 89.5595 59.0809C89.3444 59.2273 89.1803 59.4203 89.0672 59.6598C88.954 59.8992 88.8975 60.1603 88.8975 60.4431V60.9881C88.8975 61.3624 88.9617 61.6793 89.0903 61.9386C89.2188 62.1979 89.3991 62.3938 89.6312 62.5264C89.8633 62.6589 90.1321 62.7252 90.4378 62.7252C90.638 62.7252 90.82 62.6965 90.9837 62.639C91.1475 62.5816 91.2885 62.4952 91.4066 62.3798C91.5248 62.2644 91.6154 62.1216 91.6785 61.9513L92.6863 62.1892C92.6005 62.472 92.4541 62.7203 92.247 62.9342C92.0399 63.1481 91.7824 63.3148 91.4746 63.4344C91.1668 63.5539 90.8175 63.6137 90.4268 63.6137ZM93.9479 63.5V58.041H94.9873V58.9178H95.0459C95.1462 58.6212 95.322 58.3882 95.5731 58.2187C95.8243 58.0493 96.1094 57.9646 96.4285 57.9646C96.4971 57.9646 96.5758 57.9672 96.6644 57.9722C96.753 57.9772 96.8257 57.9834 96.8825 57.9907V59.016C96.8436 59.0042 96.7687 58.9917 96.6578 58.9784C96.5469 58.965 96.4343 58.9584 96.32 58.9584C96.0719 58.9584 95.8493 59.0109 95.6523 59.1158C95.4553 59.2208 95.3009 59.3652 95.1893 59.5492C95.0777 59.7332 95.0219 59.9454 95.0219 60.1857V63.5H93.9479ZM97.942 65.541V58.041H98.9885V58.93H99.0773C99.1409 58.8165 99.2304 58.685 99.3458 58.5354C99.4612 58.3858 99.6226 58.2546 99.83 58.1418C100.037 58.0291 100.311 57.9727 100.651 57.9727C101.089 57.9727 101.48 58.0834 101.823 58.3048C102.165 58.5262 102.436 58.8468 102.634 59.2666C102.832 59.6864 102.932 60.192 102.932 60.7834C102.932 61.3716 102.834 61.8764 102.639 62.2979C102.443 62.7193 102.174 63.043 101.831 63.2692C101.489 63.4953 101.095 63.6084 100.651 63.6084C100.322 63.6084 100.053 63.5521 99.8438 63.4394C99.6343 63.3267 99.4702 63.1953 99.3516 63.0451C99.2329 62.8949 99.1415 62.7618 99.0773 62.6456H99.016V65.541H97.942ZM100.413 62.6931C100.726 62.6931 100.988 62.6084 101.199 62.4392C101.409 62.2699 101.568 62.0404 101.675 61.7506C101.782 61.4608 101.835 61.1357 101.835 60.7754C101.835 60.4171 101.782 60.0958 101.677 59.8113C101.571 59.5269 101.413 59.3019 101.203 59.1363C100.992 58.9708 100.729 58.888 100.413 58.888C100.106 58.888 99.847 58.9668 99.6367 59.1243C99.4264 59.2819 99.2676 59.5015 99.1602 59.7833C99.0529 60.0651 98.9992 60.3958 98.9992 60.7754C98.9992 61.1538 99.0536 61.4871 99.1623 61.7753C99.2709 62.0634 99.4311 62.2884 99.6427 62.4503C99.8543 62.6121 100.111 62.6931 100.413 62.6931ZM104.124 63.5V58.041H105.163V58.9178H105.222C105.322 58.6212 105.498 58.3882 105.749 58.2187C106 58.0493 106.285 57.9646 106.604 57.9646C106.673 57.9646 106.752 57.9672 106.84 57.9722C106.929 57.9772 107.002 57.9834 107.058 57.9907V59.016C107.019 59.0042 106.944 58.9917 106.834 58.9784C106.723 58.965 106.61 58.9584 106.496 58.9584C106.248 58.9584 106.025 59.0109 105.828 59.1158C105.631 59.2208 105.477 59.3652 105.365 59.5492C105.253 59.7332 105.198 59.9454 105.198 60.1857V63.5H104.124ZM108.069 63.5V58.041H109.143V63.5H108.069ZM108.609 57.2081C108.425 57.2081 108.266 57.1456 108.134 57.0205C108.001 56.8954 107.935 56.7452 107.935 56.5701C107.935 56.3914 108.001 56.2403 108.134 56.1169C108.266 55.9935 108.425 55.9317 108.609 55.9317C108.796 55.9317 108.956 55.9934 109.088 56.1168C109.221 56.2402 109.288 56.3913 109.288 56.5701C109.288 56.7453 109.221 56.8954 109.088 57.0205C108.956 57.1456 108.796 57.2081 108.609 57.2081ZM112.549 63.6137C112.153 63.6137 111.801 63.5564 111.494 63.4417C111.187 63.3271 110.934 63.1584 110.737 62.9357C110.54 62.7129 110.409 62.4412 110.344 62.1205L111.356 61.9089C111.432 62.1931 111.572 62.403 111.775 62.5386C111.979 62.6742 112.24 62.742 112.556 62.742C112.903 62.742 113.179 62.67 113.384 62.526C113.589 62.382 113.691 62.2079 113.691 62.0038C113.691 61.8302 113.628 61.6865 113.502 61.5726C113.376 61.4587 113.182 61.3729 112.922 61.3151L112.003 61.1073C111.498 60.9931 111.122 60.811 110.874 60.5611C110.627 60.3113 110.503 59.9902 110.503 59.5979C110.503 59.273 110.594 58.9888 110.774 58.7452C110.955 58.5015 111.204 58.3118 111.521 58.1762C111.839 58.0405 112.203 57.9727 112.614 57.9727C113.008 57.9727 113.345 58.03 113.625 58.1446C113.905 58.2593 114.132 58.4184 114.306 58.6221C114.481 58.8258 114.606 59.063 114.683 59.3336L113.719 59.5466C113.65 59.3542 113.531 59.1851 113.363 59.0394C113.194 58.8937 112.948 58.8208 112.625 58.8208C112.328 58.8208 112.08 58.8876 111.881 59.0212C111.683 59.1549 111.584 59.3254 111.584 59.5327C111.584 59.7129 111.65 59.8594 111.783 59.9724C111.915 60.0854 112.131 60.1758 112.429 60.2437L113.307 60.439C113.812 60.5526 114.188 60.7319 114.432 60.9768C114.676 61.2217 114.799 61.534 114.799 61.9136C114.799 62.2455 114.704 62.5392 114.513 62.7946C114.323 63.0501 114.059 63.2505 113.721 63.3958C113.383 63.541 112.992 63.6137 112.549 63.6137ZM118.327 63.6137C117.79 63.6137 117.326 63.4975 116.937 63.2652C116.547 63.0329 116.248 62.7067 116.038 62.2868C115.828 61.8669 115.723 61.3743 115.723 60.8092C115.723 60.2487 115.826 59.7557 116.032 59.3301C116.238 58.9046 116.53 58.5719 116.908 58.3322C117.285 58.0925 117.727 57.9727 118.234 57.9727C118.546 57.9727 118.848 58.0236 119.139 58.1255C119.43 58.2274 119.691 58.3876 119.922 58.6061C120.152 58.8245 120.335 59.1076 120.47 59.4554C120.605 59.8031 120.673 60.2231 120.673 60.7153V61.0965H116.32V60.2945H120.119L119.618 60.5592C119.618 60.2257 119.566 59.9312 119.462 59.6758C119.358 59.4203 119.204 59.2207 119 59.0769C118.795 58.933 118.541 58.8611 118.238 58.8611C117.934 58.8611 117.675 58.9344 117.46 59.0809C117.245 59.2273 117.081 59.4203 116.968 59.6598C116.854 59.8992 116.798 60.1603 116.798 60.4431V60.9881C116.798 61.3624 116.862 61.6793 116.991 61.9386C117.119 62.1979 117.3 62.3938 117.532 62.5264C117.764 62.6589 118.033 62.7252 118.338 62.7252C118.538 62.7252 118.72 62.6965 118.884 62.639C119.048 62.5816 119.189 62.4952 119.307 62.3798C119.425 62.2644 119.516 62.1216 119.579 61.9513L120.587 62.1892C120.501 62.472 120.354 62.7203 120.147 62.9342C119.94 63.1481 119.683 63.3148 119.375 63.4344C119.067 63.5539 118.718 63.6137 118.327 63.6137ZM127.04 63.6199C126.496 63.6199 126.024 63.5337 125.623 63.3612C125.222 63.1887 124.909 62.9425 124.683 62.6226C124.457 62.3027 124.332 61.9212 124.307 61.4779H125.426C125.449 61.742 125.536 61.9605 125.684 62.1336C125.833 62.3066 126.026 62.4355 126.262 62.5203C126.499 62.6051 126.756 62.6475 127.034 62.6475C127.342 62.6475 127.616 62.5987 127.857 62.5013C128.097 62.4038 128.287 62.2667 128.426 62.0898C128.564 61.9129 128.634 61.7082 128.634 61.4757C128.634 61.2636 128.573 61.09 128.453 60.9549C128.332 60.8199 128.168 60.7075 127.96 60.6178C127.753 60.5281 127.518 60.4489 127.256 60.3802L126.403 60.1478C125.807 59.9871 125.343 59.7502 125.009 59.4372C124.676 59.1241 124.509 58.7188 124.509 58.2212C124.509 57.8017 124.622 57.4346 124.849 57.1199C125.076 56.8053 125.383 56.5611 125.772 56.3875C126.161 56.2138 126.6 56.127 127.088 56.127C127.587 56.127 128.025 56.2141 128.404 56.3883C128.782 56.5626 129.08 56.8012 129.297 57.1043C129.514 57.4074 129.628 57.7525 129.639 58.1396H128.553C128.515 57.8059 128.361 57.5478 128.09 57.3652C127.818 57.1827 127.476 57.0914 127.064 57.0914C126.771 57.0914 126.517 57.1377 126.3 57.2303C126.083 57.3228 125.915 57.4495 125.797 57.6102C125.68 57.7709 125.621 57.9544 125.621 58.1605C125.621 58.3893 125.691 58.5748 125.833 58.7171C125.974 58.8594 126.147 58.9716 126.35 59.0538C126.554 59.136 126.748 59.2015 126.933 59.2503L127.637 59.4373C127.87 59.4952 128.108 59.5742 128.354 59.6741C128.599 59.7741 128.826 59.9029 129.036 60.0607C129.245 60.2186 129.414 60.414 129.543 60.647C129.672 60.8801 129.737 61.1603 129.737 61.4877C129.737 61.8995 129.631 62.2662 129.419 62.5878C129.207 62.9095 128.9 63.1619 128.497 63.3451C128.095 63.5283 127.609 63.6199 127.04 63.6199ZM132.834 63.5684C132.464 63.5684 132.138 63.4905 131.859 63.3347C131.579 63.179 131.362 62.9478 131.207 62.6412C131.052 62.3346 130.974 61.9574 130.974 61.5096V58.041H132.048V61.3757C132.048 61.7687 132.151 62.0765 132.357 62.2992C132.564 62.5219 132.845 62.6332 133.202 62.6332C133.445 62.6332 133.661 62.5802 133.852 62.4742C134.043 62.3682 134.193 62.2133 134.304 62.0097C134.414 61.8061 134.469 61.5614 134.469 61.2756V58.041H135.547V63.5H134.519L134.512 62.1636H134.619C134.458 62.6571 134.225 63.0146 133.92 63.2361C133.615 63.4576 133.253 63.5684 132.834 63.5684ZM136.99 63.5V58.041H138.064V63.5H136.99ZM137.53 57.2081C137.346 57.2081 137.187 57.1456 137.055 57.0205C136.922 56.8954 136.855 56.7452 136.855 56.5701C136.855 56.3914 136.922 56.2403 137.055 56.1169C137.187 55.9935 137.346 55.9317 137.53 55.9317C137.717 55.9317 137.876 55.9934 138.009 56.1168C138.142 56.2402 138.208 56.3913 138.208 56.5701C138.208 56.7453 138.142 56.8954 138.009 57.0205C137.876 57.1456 137.717 57.2081 137.53 57.2081ZM141.846 58.041V58.9143H138.885V58.041H141.846ZM139.682 56.7422H140.756V62.0233C140.756 62.244 140.802 62.4056 140.894 62.5079C140.986 62.6103 141.139 62.6614 141.352 62.6614C141.407 62.6614 141.481 62.6548 141.572 62.6415C141.663 62.6281 141.741 62.615 141.806 62.602L141.996 63.4628C141.881 63.5006 141.758 63.5281 141.628 63.5453C141.497 63.5624 141.37 63.571 141.245 63.571C140.747 63.571 140.363 63.4437 140.09 63.1891C139.818 62.9345 139.682 62.5755 139.682 62.1119V56.7422ZM145.168 63.6137C144.631 63.6137 144.167 63.4975 143.778 63.2652C143.388 63.0329 143.088 62.7067 142.879 62.2868C142.669 61.8669 142.564 61.3743 142.564 60.8092C142.564 60.2487 142.667 59.7557 142.873 59.3301C143.079 58.9046 143.371 58.5719 143.748 58.3322C144.126 58.0925 144.568 57.9727 145.075 57.9727C145.387 57.9727 145.689 58.0236 145.979 58.1255C146.27 58.2274 146.531 58.3876 146.762 58.6061C146.993 58.8245 147.176 59.1076 147.311 59.4554C147.446 59.8031 147.514 60.2231 147.514 60.7153V61.0965H143.161V60.2945H146.96L146.458 60.5592C146.458 60.2257 146.407 59.9312 146.303 59.6758C146.199 59.4203 146.045 59.2207 145.841 59.0769C145.636 58.933 145.382 58.8611 145.079 58.8611C144.775 58.8611 144.516 58.9344 144.301 59.0809C144.086 59.2273 143.922 59.4203 143.808 59.6598C143.695 59.8992 143.639 60.1603 143.639 60.4431V60.9881C143.639 61.3624 143.703 61.6793 143.831 61.9386C143.96 62.1979 144.14 62.3938 144.372 62.5264C144.604 62.6589 144.873 62.7252 145.179 62.7252C145.379 62.7252 145.561 62.6965 145.725 62.639C145.889 62.5816 146.03 62.4952 146.148 62.3798C146.266 62.2644 146.357 62.1216 146.42 61.9513L147.428 62.1892C147.342 62.472 147.195 62.7203 146.988 62.9342C146.781 63.1481 146.524 63.3148 146.216 63.4344C145.908 63.5539 145.559 63.6137 145.168 63.6137Z" fill="#64748B"/>
<defs>
<filter id="filter0_dd_1_289" x="12" y="25.75" width="60" height="60" filterUnits="userSpaceOnUse" color-interpolation-filters="sRGB">
<feFlood flood-opacity="0" result="BackgroundImageFix"/>
<feColorMatrix in="SourceAlpha" type="matrix" values="0 0 0 0 0 0 0 0 0 0 0 0 0 0 0 0 0 0 127 0" result="hardAlpha"/>
<feMorphology radius="4" operator="erode" in="SourceAlpha" result="effect1_dropShadow_1_289"/>
<feOffset dy="4"/>
<feGaussianBlur stdDeviation="3"/>
<feComposite in2="hardAlpha" operator="out"/>
<feColorMatrix type="matrix" values="0 0 0 0 0.309837 0 0 0 0 0.274476 0 0 0 0 0.897986 0 0 0 0.2 0"/>
<feBlend mode="normal" in2="BackgroundImageFix" result="effect1_dropShadow_1_289"/>
<feColorMatrix in="SourceAlpha" type="matrix" values="0 0 0 0 0 0 0 0 0 0 0 0 0 0 0 0 0 0 127 0" result="hardAlpha"/>
<feMorphology radius="3" operator="erode" in="SourceAlpha" result="effect2_dropShadow_1_289"/>
<feOffset dy="10"/>
<feGaussianBlur stdDeviation="7.5"/>
<feComposite in2="hardAlpha" operator="out"/>
<feColorMatrix type="matrix" values="0 0 0 0 0.309837 0 0 0 0 0.274476 0 0 0 0 0.897986 0 0 0 0.2 0"/>
<feBlend mode="normal" in2="effect1_dropShadow_1_289" result="effect2_dropShadow_1_289"/>
<feBlend mode="normal" in="SourceGraphic" in2="effect2_dropShadow_1_289" result="shape"/>
</filter>
</defs>
</svg>
